<svg width="44" height="42" viewBox="0 0 44 42" xmlns="http://www.w3.org/2000/svg"><title>console icon</title><g fill="none" fill-rule="evenodd"><path d="M3 4c0-.554.445-1 .997-1h36.006c.552 0 .997.445.997 1v30c0 .554-.445 1-.997 1H3.997A.996.996 0 0 1 3 34V4zM1 4v30c0 1.66 1.34 3 2.997 3h36.006A2.997 2.997 0 0 0 43 34V4c0-1.66-1.34-3-2.997-3H3.997A2.997 2.997 0 0 0 1 4z" fill="#52244F"/><path d="M8.416 13.188a1.001 1.001 0 0 0 1.168 1.624l3.77-2.713c.774-.558.774-1.64 0-2.2L9.583 7.19a1.001 1.001 0 0 0-1.168 1.624L11.456 11l-3.04 2.188z" fill="#52244F"/><path d="M15.5 16h6a1 1 0 0 0 0-2h-6a1 1 0 0 0 0 2z" fill="#02D8FF"/></g></svg>